<svg xmlns="http://www.w3.org/2000/svg" viewBox="0 0 32 32" fill="none">
  <defs>
    <linearGradient id="g" x1="4" y1="28" x2="28" y2="4" gradientUnits="userSpaceOnUse">
      <stop stop-color="#1e3a8a"/>
      <stop offset="0.42" stop-color="#22d3ee"/>
      <stop offset="1" stop-color="#8b5cf6"/>
    </linearGradient>
  </defs>
  <rect width="32" height="32" rx="7" fill="#0B1120"/>
  <path d="M16 24V20" stroke="url(#g)" stroke-width="1.8" stroke-linecap="round"/>
  <path d="M16 20C11.5 18.5 7 16 6.5 12.5C6.2 10.5 7.2 8.8 8.8 8C10.4 7.2 12.2 7.5 16 9.5" stroke="url(#g)" stroke-width="1.8" stroke-linecap="round" stroke-linejoin="round"/>
  <path d="M16 20C20.5 18.5 25 16 25.5 12.5C25.8 10.5 24.8 8.8 23.2 8C21.6 7.2 19.8 7.5 16 9.5" stroke="url(#g)" stroke-width="1.8" stroke-linecap="round" stroke-linejoin="round"/>
  <path d="M18.2 14.8L20.5 12.5" stroke="url(#g)" stroke-width="1.2" stroke-linecap="round"/>
  <path d="M19.2 16.5L21.8 13.9" stroke="url(#g)" stroke-width="1.2" stroke-linecap="round"/>
  <path d="M9.5 14.5H7" stroke="url(#g)" stroke-width="1.2" stroke-linecap="round"/>
  <path d="M22.5 14.5H25" stroke="url(#g)" stroke-width="1.2" stroke-linecap="round"/>
  <path d="M14 9.5V7" stroke="url(#g)" stroke-width="1.2" stroke-linecap="round"/>
  <path d="M16 8.8V6.2" stroke="url(#g)" stroke-width="1.2" stroke-linecap="round"/>
  <path d="M18 9.5V7" stroke="url(#g)" stroke-width="1.2" stroke-linecap="round"/>
  <circle cx="7" cy="14.5" r="1.1" fill="url(#g)"/>
  <circle cx="25" cy="14.5" r="1.1" fill="url(#g)"/>
  <circle cx="14" cy="7" r="1.1" fill="url(#g)"/>
  <circle cx="16" cy="6.2" r="1.1" fill="url(#g)"/>
  <circle cx="18" cy="7" r="1.1" fill="url(#g)"/>
  <circle cx="20.5" cy="12.5" r="1.1" fill="url(#g)"/>
  <circle cx="21.8" cy="13.9" r="1.1" fill="url(#g)"/>
</svg>
