<svg xmlns="http://www.w3.org/2000/svg" viewBox="0 0 512 512" fill="none" role="img" aria-label="ARG-Builder">
  <defs>
    <linearGradient id="brand" x1="96" y1="416" x2="416" y2="96" gradientUnits="userSpaceOnUse">
      <stop stop-color="#1e3a8a"/>
      <stop offset="0.42" stop-color="#22d3ee"/>
      <stop offset="1" stop-color="#8b5cf6"/>
    </linearGradient>
  </defs>
  <!-- Open book -->
  <path d="M256 392V332" stroke="url(#brand)" stroke-width="26" stroke-linecap="round"/>
  <path d="M256 332C176 308 96 252 88 168C84 128 108 92 148 76C188 60 232 72 256 108" stroke="url(#brand)" stroke-width="26" stroke-linecap="round" stroke-linejoin="round"/>
  <path d="M256 332C336 308 416 252 424 168C428 128 404 92 364 76C324 60 280 72 256 108" stroke="url(#brand)" stroke-width="26" stroke-linecap="round" stroke-linejoin="round"/>
  <path d="M256 108V332" stroke="url(#brand)" stroke-width="26" stroke-linecap="round"/>
  <!-- Inner circuit traces (right page) -->
  <path d="M286 248L334 200" stroke="url(#brand)" stroke-width="18" stroke-linecap="round"/>
  <path d="M304 290L360 234" stroke="url(#brand)" stroke-width="18" stroke-linecap="round"/>
  <!-- External circuit traces -->
  <path d="M148 248H88" stroke="url(#brand)" stroke-width="18" stroke-linecap="round"/>
  <path d="M148 296H96" stroke="url(#brand)" stroke-width="18" stroke-linecap="round"/>
  <path d="M220 108V56" stroke="url(#brand)" stroke-width="18" stroke-linecap="round"/>
  <path d="M256 92V40" stroke="url(#brand)" stroke-width="18" stroke-linecap="round"/>
  <path d="M292 108V56" stroke="url(#brand)" stroke-width="18" stroke-linecap="round"/>
  <path d="M364 248H424" stroke="url(#brand)" stroke-width="18" stroke-linecap="round"/>
  <path d="M364 296H416" stroke="url(#brand)" stroke-width="18" stroke-linecap="round"/>
  <path d="M220 356V408" stroke="url(#brand)" stroke-width="18" stroke-linecap="round"/>
  <path d="M292 356V408" stroke="url(#brand)" stroke-width="18" stroke-linecap="round"/>
  <!-- Nodes -->
  <circle cx="88" cy="248" r="16" fill="url(#brand)"/>
  <circle cx="96" cy="296" r="16" fill="url(#brand)"/>
  <circle cx="220" cy="56" r="16" fill="url(#brand)"/>
  <circle cx="256" cy="40" r="16" fill="url(#brand)"/>
  <circle cx="292" cy="56" r="16" fill="url(#brand)"/>
  <circle cx="424" cy="248" r="16" fill="url(#brand)"/>
  <circle cx="416" cy="296" r="16" fill="url(#brand)"/>
  <circle cx="334" cy="200" r="16" fill="url(#brand)"/>
  <circle cx="360" cy="234" r="16" fill="url(#brand)"/>
  <circle cx="220" cy="408" r="16" fill="url(#brand)"/>
  <circle cx="292" cy="408" r="16" fill="url(#brand)"/>
</svg>
